<svg width="32" height="32" viewBox="0 0 32 32" fill="none" xmlns="http://www.w3.org/2000/svg">
<path d="M6.44747 11.7322C7.71816 11.7322 9.83597 12.6005 11.5302 13.956M6.02391 13.956C6.02391 13.956 7.96558 14.281 9.09474 14.8031C10.2817 15.3519 11.8479 16.7091 11.8479 16.7091M6.02391 16.4973C6.02391 16.4973 7.61521 16.9065 8.56528 17.3445C9.97147 17.9927 11.8479 19.5682 11.8479 19.5682M4.43555 8.76731V18.8269C4.43555 18.8269 6.59667 19.2659 7.71816 19.7799C10.2595 20.9447 13.1186 22.9567 13.1186 22.9567V12.2617C13.1186 12.2617 10.1977 9.82438 7.92994 9.19087C6.606 8.82102 4.43555 8.76731 4.43555 8.76731Z" stroke-linecap="round"/>
<path d="M20.7427 11.7322C19.472 11.7322 17.3542 12.6005 15.6599 13.956M21.1662 13.956C21.1662 13.956 19.2245 14.281 18.0954 14.8031C16.9084 15.3519 15.3422 16.7091 15.3422 16.7091M21.1662 16.4973C21.1662 16.4973 19.5749 16.9065 18.6248 17.3445C17.2187 17.9927 15.3422 19.5682 15.3422 19.5682M22.7546 8.76731V18.8269C22.7546 18.8269 20.5935 19.2659 19.472 19.7799C16.9306 20.9447 14.0715 22.9567 14.0715 22.9567V12.2617C14.0715 12.2617 16.9924 9.82438 19.2602 9.19087C20.5841 8.82102 22.7546 8.76731 22.7546 8.76731Z" stroke-linecap="round"/>
<path d="M2 10.7792V21.5801L13.2244 27.1923" stroke-linecap="round"/>
<path d="M24.4489 10.6733V21.4742L13.2244 27.0864" stroke-linecap="round"/>
<path d="M7.61224 21.2624C5.70621 20.3447 3.90607 20.5212 3.90607 20.5212C6.83571 22.1448 11.4243 24.545 12.4832 24.545C12.2714 23.592 9.51828 22.1801 7.61224 21.2624Z"/>
<path d="M18.9425 21.1701C20.8485 20.2524 22.6487 20.4289 22.6487 20.4289C19.719 22.0526 15.1304 24.4527 14.0715 24.4527C14.2833 23.4997 17.0365 22.0879 18.9425 21.1701Z"/>
<path fill-rule="evenodd" clip-rule="evenodd" d="M26.7869 10.7471C26.5046 10.4216 26.6062 10.0604 26.7038 9.71367C26.765 9.49614 26.8246 9.28429 26.7869 9.0905C25.8889 8.46928 25.1144 7.89372 25.1982 6.81267C25.2945 5.57028 26.4394 4.74945 27.6848 4.81095C28.9422 4.87303 29.7383 5.85118 29.9642 7.08877C30.286 8.8518 28.3755 10.402 26.7869 10.7471ZM27.1717 6.92892C27.1717 7.16323 26.9818 7.35317 26.7475 7.35317C26.5132 7.35317 26.3232 7.16323 26.3232 6.92892C26.3232 6.69462 26.5132 6.50468 26.7475 6.50468C26.9818 6.50468 27.1717 6.69462 27.1717 6.92892ZM28.1616 7.35317C28.3959 7.35317 28.5858 7.16323 28.5858 6.92892C28.5858 6.69462 28.3959 6.50468 28.1616 6.50468C27.9273 6.50468 27.7374 6.69462 27.7374 6.92892C27.7374 7.16323 27.9273 7.35317 28.1616 7.35317Z"/>
</svg>
